<svg style="height: 512px; width: 512px;" xmlns="http://www.w3.org/2000/svg" viewBox="0 0 512 512"><defs><clipPath id="icon-bg"><circle cx="256" cy="256" r="256" fill="url(#gradient-0)" transform="translate(-76.8, -76.8) scale(1.3, 1.3) rotate(0, 256, 256)"></circle></clipPath><linearGradient x1="0" x2="0" y1="0" y2="1" id="gradient-0"><stop offset="0%" stop-color="#b21212" stop-opacity="1"></stop><stop offset="100%" stop-color="#ff0000" stop-opacity="1"></stop></linearGradient></defs><circle cx="256" cy="256" r="256" fill="url(#gradient-0)"></circle><g class="" style="touch-action: none;" transform="translate(0,0)"><path d="M384 64l.387 256H368l-96-128-16 128-96-128-16 128-96-128-16 128v160h448V64h-32v256h-32V64h-32zM64 352h48v32H64v-32zm80 0h48v32h-48v-32zm80 0h48v32h-48v-32zm80 0h48v32h-48v-32zM64 416h48v32H64v-32zm80 0h48v32h-48v-32zm80 0h48v32h-48v-32zm80 0h48v32h-48v-32z" fill="#fffc19" fill-opacity="1" clip-path="url(#icon-bg)" transform="translate(76.8, 76.8) scale(0.7, 0.7) rotate(0, 256, 256)"></path></g><g font-family="Arial, Helvetica, sans-serif" font-size="109" font-style="normal" font-weight="bold" text-anchor="middle" class="" style="touch-action: none;" transform="translate(236,176)"><text stroke="rgba(255, 255, 255, 1)" stroke-width="27.25"><tspan x="0" y="0">IE</tspan></text><text fill="rgba(20, 133, 204, 1)"><tspan x="0" y="0">IE</tspan></text></g></svg>